<svg xmlns="http://www.w3.org/2000/svg" xmlns:xlink="http://www.w3.org/1999/xlink" viewBox="0 0 2052.37 1401.46"><defs><style>.a{fill:#cecece;}.b{fill:#020202;}.c{fill:#040404;}.d{fill:#060606;}.e{fill:#080808;}.f{fill:#0a0a0a;}.g{fill:#0c0c0c;}.h{fill:#0e0e0e;}.i{fill:#101010;}.j{fill:#121212;}.k{fill:#141414;}.l{fill:#161616;}.m{fill:#181818;}.n{fill:#1a1a1a;}.o{fill:#1c1c1c;}.p{fill:#1e1e1e;}.q{fill:#202020;}.r{fill:#222;}.s{fill:#242424;}.t{fill:#262626;}.u{fill:#282828;}.v{fill:#2a2a2a;}.w{fill:#2c2c2c;}.x{fill:#2e2e2e;}.y{fill:#303030;}.z{fill:#323232;}.aa{fill:#343434;}.ab{fill:#363636;}.ac{fill:#383838;}.ad{fill:#3a3a3a;}.ae{fill:#3c3c3c;}.af{fill:#3e3e3e;}.ag{fill:#404040;}.ah{fill:#424242;}.ai{fill:#444;}.aj{fill:#464646;}.ak{fill:#484848;}.al{fill:#4a4a4a;}.am{fill:#4c4c4c;}.an{fill:#4e4e4e;}.ao{fill:#505050;}.ap{fill:#525252;}.aq{fill:#545454;}.ar{fill:#565656;}.as{fill:#585858;}.at{fill:#5a5a5a;}.au{fill:#5c5c5c;}.av{fill:#5e5e5e;}.aw{fill:#606060;}.ax{fill:#626262;}.ay{fill:#646464;}.az{fill:#666;}.ba{fill:#686868;}.bb{fill:#6a6a6a;}.bc{fill:#6c6c6c;}.bd{fill:#6e6e6e;}.be{fill:#707070;}.bf{fill:#727272;}.bg{fill:#747474;}.bh{fill:#767676;}.bi{fill:#787878;}.bj{fill:#7a7a7a;}.bk{fill:#7c7c7c;}.bl{fill:#7e7e7e;}.bm{fill:gray;}.bn{fill:#828282;}.bo{fill:#848484;}.bp{fill:#868686;}.bq{fill:#888;}.br{fill:#8a8a8a;}.bs{fill:#8c8c8c;}.bt{fill:#8e8e8e;}.bu{fill:#909090;}.bv{fill:#929292;}.bw{fill:#949494;}.bx{fill:#969696;}.by{fill:#989898;}.bz{fill:#9a9a9a;}.ca{fill:#9c9c9c;}.cb{fill:#9e9e9e;}.cc{fill:#a0a0a0;}.cd{fill:#a2a2a2;}.ce{fill:#a4a4a4;}.cf{fill:#a6a6a6;}.cg{fill:#a8a8a8;}.ch{fill:#aaa;}.ci{fill:#acacac;}.cj{fill:#aeaeae;}.ck{fill:#b0b0b0;}.cl{fill:#b2b2b2;}.cm{fill:#b4b4b4;}.cn{fill:#b6b6b6;}.co{fill:#b8b8b8;}.cp{fill:#bababa;}.cq{fill:#bcbcbc;}.cr{fill:#bebebe;}.cs{fill:silver;}.ct{fill:#c2c2c2;}.cu{fill:#c4c4c4;}.cv{fill:#c6c6c6;}.cw{fill:#c8c8c8;}.cx{fill:#cacaca;}.cy{fill:#ccc;}</style><symbol id="a" viewBox="0 0 75 37"><rect width="75" height="37" rx="12" ry="12"/></symbol><symbol id="b" viewBox="0 0 75 37"><rect class="a" width="75" height="37" rx="12" ry="12"/></symbol></defs><title>block-cluster</title><use width="75" height="37" transform="translate(263.09 688.15)" xlink:href="#a"/><rect class="b" x="317.44" y="598.17" width="75" height="37" rx="12" ry="12"/><rect class="c" x="383.58" y="519.35" width="75" height="37" rx="12" ry="12"/><rect class="d" x="459.74" y="451.12" width="75" height="37" rx="12" ry="12"/><rect class="e" x="544.17" y="392.96" width="75" height="37" rx="12" ry="12"/><rect class="f" x="635.09" y="344.32" width="75" height="37" rx="12" ry="12"/><rect class="g" x="730.75" y="304.65" width="75" height="37" rx="12" ry="12"/><rect class="h" x="829.37" y="273.42" width="75" height="37" rx="12" ry="12"/><rect class="i" x="929.19" y="250.08" width="75" height="37" rx="12" ry="12"/><rect class="j" x="1028.46" y="234.09" width="75" height="37" rx="12" ry="12"/><rect class="k" x="1125.4" y="224.91" width="75" height="37" rx="12" ry="12"/><rect class="l" x="1218.24" y="221.99" width="75" height="37" rx="12" ry="12"/><rect class="m" x="1305.23" y="224.8" width="75" height="37" rx="12" ry="12"/><rect class="n" x="1384.6" y="232.79" width="75" height="37" rx="12" ry="12"/><rect class="o" x="1454.58" y="245.42" width="75" height="37" rx="12" ry="12"/><rect class="p" x="1513.42" y="262.14" width="75" height="37" rx="12" ry="12"/><rect class="q" x="1559.33" y="282.42" width="75" height="37" rx="12" ry="12"/><rect class="r" x="1590.57" y="305.72" width="75" height="37" rx="12" ry="12"/><rect class="s" x="1605.37" y="331.48" width="75" height="37" rx="12" ry="12"/><rect class="t" x="1601.95" y="359.17" width="75" height="37" rx="12" ry="12"/><rect class="u" x="1578.56" y="388.25" width="75" height="37" rx="12" ry="12"/><rect class="v" x="1533.44" y="418.17" width="75" height="37" rx="12" ry="12"/><rect class="w" x="1464.8" y="448.39" width="75" height="37" rx="12" ry="12"/><rect class="x" x="1370.91" y="478.37" width="75" height="37" rx="12" ry="12"/><rect class="y" x="1249.97" y="507.56" width="75" height="37" rx="12" ry="12"/><rect class="z" x="1095.44" y="539.79" width="75" height="37" rx="12" ry="12"/><rect class="aa" x="959.86" y="580.29" width="75" height="37" rx="12" ry="12"/><rect class="ab" x="858.93" y="625.86" width="75" height="37" rx="12" ry="12"/><rect class="ac" x="789.02" y="674.67" width="75" height="37" rx="12" ry="12"/><rect class="ad" x="746.5" y="724.93" width="75" height="37" rx="12" ry="12"/><rect class="ae" x="727.71" y="774.81" width="75" height="37" rx="12" ry="12"/><rect class="af" x="729.02" y="822.52" width="75" height="37" rx="12" ry="12"/><rect class="ag" x="746.79" y="866.24" width="75" height="37" rx="12" ry="12"/><rect class="ah" x="777.37" y="904.16" width="75" height="37" rx="12" ry="12"/><rect class="ai" x="817.13" y="934.47" width="75" height="37" rx="12" ry="12"/><rect class="aj" x="862.42" y="955.36" width="75" height="37" rx="12" ry="12"/><rect class="ak" x="909.6" y="965.02" width="75" height="37" rx="12" ry="12"/><rect class="al" x="955.03" y="961.64" width="75" height="37" rx="12" ry="12"/><rect class="am" x="995.07" y="943.41" width="75" height="37" rx="12" ry="12"/><rect class="an" x="1026.08" y="908.52" width="75" height="37" rx="12" ry="12"/><rect class="ao" x="1044.42" y="855.16" width="75" height="37" rx="12" ry="12"/><rect class="ap" x="1046.44" y="781.52" width="75" height="37" rx="12" ry="12"/><rect class="aq" x="1028.51" y="685.79" width="75" height="37" rx="12" ry="12"/><rect class="ar" x="986.99" y="566.15" width="75" height="37" rx="12" ry="12"/><rect class="as" x="918.22" y="420.81" width="75" height="37" rx="12" ry="12"/><rect class="at" x="818.58" y="247.94" width="75" height="37" rx="12" ry="12"/><rect class="au" x="775.5" y="168.45" width="75" height="37" rx="12" ry="12"/><rect class="av" x="760.08" y="105.48" width="75" height="37" rx="12" ry="12"/><rect class="aw" x="767.66" y="57.89" width="75" height="37" rx="12" ry="12"/><rect class="ax" x="793.82" y="24.93" width="75" height="37" rx="12" ry="12"/><rect class="ay" x="834.15" y="5.88" width="75" height="37" rx="12" ry="12"/><rect class="az" x="884.23" width="75" height="37" rx="12" ry="12"/><rect class="ba" x="939.67" y="6.56" width="75" height="37" rx="12" ry="12"/><rect class="bb" x="996.03" y="24.81" width="75" height="37" rx="12" ry="12"/><rect class="bc" x="1048.92" y="54.04" width="75" height="37" rx="12" ry="12"/><rect class="bd" x="1093.91" y="93.5" width="75" height="37" rx="12" ry="12"/><rect class="be" x="1126.6" y="142.46" width="75" height="37" rx="12" ry="12"/><rect class="bf" x="1142.57" y="200.19" width="75" height="37" rx="12" ry="12"/><rect class="bg" x="1137.41" y="265.95" width="75" height="37" rx="12" ry="12"/><rect class="bh" x="1106.7" y="339" width="75" height="37" rx="12" ry="12"/><rect class="bi" x="1046.04" y="418.62" width="75" height="37" rx="12" ry="12"/><rect class="bj" x="951" y="504.08" width="75" height="37" rx="12" ry="12"/><rect class="bk" x="817.19" y="594.62" width="75" height="37" rx="12" ry="12"/><rect class="bl" x="640.17" y="689.53" width="75" height="37" rx="12" ry="12"/><rect class="bm" x="438.78" y="780.18" width="75" height="37" rx="12" ry="12"/><rect class="bn" x="284.51" y="842.15" width="75" height="37" rx="12" ry="12"/><rect class="bo" x="177.67" y="876.59" width="75" height="37" rx="12" ry="12"/><rect class="bp" x="112.54" y="886.67" width="75" height="37" rx="12" ry="12"/><rect class="bq" x="83.43" y="875.54" width="75" height="37" rx="12" ry="12"/><rect class="br" x="84.63" y="846.36" width="75" height="37" rx="12" ry="12"/><rect class="bs" x="110.42" y="802.29" width="75" height="37" rx="12" ry="12"/><rect class="bt" x="155.11" y="746.47" width="75" height="37" rx="12" ry="12"/><rect class="bu" x="212.99" y="682.06" width="75" height="37" rx="12" ry="12"/><rect class="bv" x="278.36" y="612.23" width="75" height="37" rx="12" ry="12"/><rect class="bw" x="345.5" y="540.12" width="75" height="37" rx="12" ry="12"/><rect class="bx" x="408.71" y="468.89" width="75" height="37" rx="12" ry="12"/><rect class="by" x="462.28" y="401.7" width="75" height="37" rx="12" ry="12"/><rect class="bz" x="500.52" y="341.71" width="75" height="37" rx="12" ry="12"/><rect class="ca" x="517.7" y="292.06" width="75" height="37" rx="12" ry="12"/><rect class="cb" x="508.14" y="255.91" width="75" height="37" rx="12" ry="12"/><rect class="cc" x="466.11" y="236.43" width="75" height="37" rx="12" ry="12"/><rect class="cd" x="385.92" y="236.76" width="75" height="37" rx="12" ry="12"/><rect class="ce" x="264.79" y="259.38" width="75" height="37" rx="12" ry="12"/><rect class="cf" x="159.52" y="291.17" width="75" height="37" rx="12" ry="12"/><rect class="cg" x="82.48" y="327.64" width="75" height="37" rx="12" ry="12"/><rect class="ch" x="31.6" y="368" width="75" height="37" rx="12" ry="12"/><rect class="ci" x="4.8" y="411.45" width="75" height="37" rx="12" ry="12"/><rect class="cj" y="457.19" width="75" height="37" rx="12" ry="12"/><rect class="ck" x="15.12" y="504.42" width="75" height="37" rx="12" ry="12"/><rect class="cl" x="48.09" y="552.35" width="75" height="37" rx="12" ry="12"/><rect class="cm" x="96.82" y="600.17" width="75" height="37" rx="12" ry="12"/><rect class="cn" x="159.24" y="647.09" width="75" height="37" rx="12" ry="12"/><rect class="co" x="233.27" y="692.32" width="75" height="37" rx="12" ry="12"/><rect class="cp" x="316.83" y="735.05" width="75" height="37" rx="12" ry="12"/><rect class="cq" x="407.85" y="774.49" width="75" height="37" rx="12" ry="12"/><rect class="cr" x="504.24" y="809.83" width="75" height="37" rx="12" ry="12"/><rect class="cs" x="603.93" y="840.29" width="75" height="37" rx="12" ry="12"/><rect class="ct" x="704.84" y="865.07" width="75" height="37" rx="12" ry="12"/><rect class="cu" x="804.9" y="883.36" width="75" height="37" rx="12" ry="12"/><rect class="cv" x="902.02" y="894.37" width="75" height="37" rx="12" ry="12"/><rect class="cw" x="994.13" y="897.3" width="75" height="37" rx="12" ry="12"/><rect class="cx" x="1079.14" y="891.35" width="75" height="37" rx="12" ry="12"/><rect class="cy" x="1154.99" y="875.74" width="75" height="37" rx="12" ry="12"/><use width="75" height="37" transform="translate(1219.59 849.65)" xlink:href="#b"/><use width="75" height="37" transform="matrix(1, 0, 0, -1, 635.09, 713.32)" xlink:href="#a"/><rect class="b" x="689.44" y="766.29" width="75" height="37" rx="12" ry="12"/><rect class="c" x="755.58" y="845.12" width="75" height="37" rx="12" ry="12"/><rect class="d" x="831.74" y="913.34" width="75" height="37" rx="12" ry="12"/><rect class="e" x="916.17" y="971.5" width="75" height="37" rx="12" ry="12"/><rect class="f" x="1007.09" y="1020.15" width="75" height="37" rx="12" ry="12"/><rect class="g" x="1102.75" y="1059.81" width="75" height="37" rx="12" ry="12"/><rect class="h" x="1201.37" y="1091.05" width="75" height="37" rx="12" ry="12"/><rect class="i" x="1301.19" y="1114.39" width="75" height="37" rx="12" ry="12"/><rect class="j" x="1400.46" y="1130.37" width="75" height="37" rx="12" ry="12"/><rect class="k" x="1497.4" y="1139.56" width="75" height="37" rx="12" ry="12"/><rect class="l" x="1590.24" y="1142.47" width="75" height="37" rx="12" ry="12"/><rect class="m" x="1677.23" y="1139.66" width="75" height="37" rx="12" ry="12"/><rect class="n" x="1756.6" y="1131.67" width="75" height="37" rx="12" ry="12"/><rect class="o" x="1826.58" y="1119.04" width="75" height="37" rx="12" ry="12"/><rect class="p" x="1885.42" y="1102.32" width="75" height="37" rx="12" ry="12"/><rect class="q" x="1931.33" y="1082.04" width="75" height="37" rx="12" ry="12"/><rect class="r" x="1962.57" y="1058.75" width="75" height="37" rx="12" ry="12"/><rect class="s" x="1977.37" y="1032.98" width="75" height="37" rx="12" ry="12"/><rect class="t" x="1973.95" y="1005.29" width="75" height="37" rx="12" ry="12"/><rect class="u" x="1950.56" y="976.22" width="75" height="37" rx="12" ry="12"/><rect class="v" x="1905.44" y="946.3" width="75" height="37" rx="12" ry="12"/><rect class="w" x="1836.8" y="916.08" width="75" height="37" rx="12" ry="12"/><rect class="x" x="1742.91" y="886.1" width="75" height="37" rx="12" ry="12"/><rect class="y" x="1621.97" y="856.9" width="75" height="37" rx="12" ry="12"/><rect class="z" x="1467.44" y="824.67" width="75" height="37" rx="12" ry="12"/><rect class="aa" x="1331.86" y="784.17" width="75" height="37" rx="12" ry="12"/><rect class="ab" x="1230.93" y="738.61" width="75" height="37" rx="12" ry="12"/><rect class="ac" x="1161.02" y="689.79" width="75" height="37" rx="12" ry="12"/><rect class="ad" x="1118.5" y="639.54" width="75" height="37" rx="12" ry="12"/><rect class="ae" x="1099.71" y="589.65" width="75" height="37" rx="12" ry="12"/><rect class="af" x="1101.02" y="541.94" width="75" height="37" rx="12" ry="12"/><rect class="ag" x="1118.79" y="498.22" width="75" height="37" rx="12" ry="12"/><rect class="ah" x="1149.37" y="460.3" width="75" height="37" rx="12" ry="12"/><rect class="ai" x="1189.13" y="429.99" width="75" height="37" rx="12" ry="12"/><rect class="aj" x="1234.42" y="409.1" width="75" height="37" rx="12" ry="12"/><rect class="ak" x="1281.6" y="399.44" width="75" height="37" rx="12" ry="12"/><rect class="al" x="1327.03" y="402.82" width="75" height="37" rx="12" ry="12"/><rect class="am" x="1367.07" y="421.05" width="75" height="37" rx="12" ry="12"/><rect class="an" x="1398.08" y="455.94" width="75" height="37" rx="12" ry="12"/><rect class="ao" x="1416.42" y="509.3" width="75" height="37" rx="12" ry="12"/><rect class="ap" x="1418.44" y="582.94" width="75" height="37" rx="12" ry="12"/><rect class="aq" x="1400.51" y="678.67" width="75" height="37" rx="12" ry="12"/><rect class="ar" x="1358.99" y="798.31" width="75" height="37" rx="12" ry="12"/><rect class="as" x="1290.22" y="943.65" width="75" height="37" rx="12" ry="12"/><rect class="at" x="1190.58" y="1116.52" width="75" height="37" rx="12" ry="12"/><rect class="au" x="1147.5" y="1196.02" width="75" height="37" rx="12" ry="12"/><rect class="av" x="1132.08" y="1258.98" width="75" height="37" rx="12" ry="12"/><rect class="aw" x="1139.66" y="1306.58" width="75" height="37" rx="12" ry="12"/><rect class="ax" x="1165.82" y="1339.53" width="75" height="37" rx="12" ry="12"/><rect class="ay" x="1206.15" y="1358.58" width="75" height="37" rx="12" ry="12"/><rect class="az" x="1256.23" y="1364.46" width="75" height="37" rx="12" ry="12"/><rect class="ba" x="1311.67" y="1357.91" width="75" height="37" rx="12" ry="12"/><rect class="bb" x="1368.03" y="1339.65" width="75" height="37" rx="12" ry="12"/><rect class="bc" x="1420.92" y="1310.42" width="75" height="37" rx="12" ry="12"/><rect class="bd" x="1465.91" y="1270.96" width="75" height="37" rx="12" ry="12"/><rect class="be" x="1498.6" y="1222" width="75" height="37" rx="12" ry="12"/><rect class="bf" x="1514.57" y="1164.27" width="75" height="37" rx="12" ry="12"/><rect class="bg" x="1509.41" y="1098.52" width="75" height="37" rx="12" ry="12"/><rect class="bh" x="1478.7" y="1025.46" width="75" height="37" rx="12" ry="12"/><rect class="bi" x="1418.04" y="945.84" width="75" height="37" rx="12" ry="12"/><rect class="bj" x="1323" y="860.39" width="75" height="37" rx="12" ry="12"/><rect class="bk" x="1189.19" y="769.84" width="75" height="37" rx="12" ry="12"/><rect class="bl" x="1012.17" y="674.93" width="75" height="37" rx="12" ry="12"/><rect class="bm" x="810.78" y="584.28" width="75" height="37" rx="12" ry="12"/><rect class="bn" x="656.51" y="522.32" width="75" height="37" rx="12" ry="12"/><rect class="bo" x="549.67" y="487.87" width="75" height="37" rx="12" ry="12"/><rect class="bp" x="484.54" y="477.79" width="75" height="37" rx="12" ry="12"/><rect class="bq" x="455.43" y="488.92" width="75" height="37" rx="12" ry="12"/><rect class="br" x="456.63" y="518.1" width="75" height="37" rx="12" ry="12"/><rect class="bs" x="482.42" y="562.18" width="75" height="37" rx="12" ry="12"/><rect class="bt" x="527.11" y="618" width="75" height="37" rx="12" ry="12"/><rect class="bu" x="584.99" y="682.4" width="75" height="37" rx="12" ry="12"/><rect class="bv" x="650.36" y="752.23" width="75" height="37" rx="12" ry="12"/><rect class="bw" x="717.5" y="824.34" width="75" height="37" rx="12" ry="12"/><rect class="bx" x="780.71" y="895.57" width="75" height="37" rx="12" ry="12"/><rect class="by" x="834.28" y="962.76" width="75" height="37" rx="12" ry="12"/><rect class="bz" x="872.52" y="1022.76" width="75" height="37" rx="12" ry="12"/><rect class="ca" x="889.7" y="1072.4" width="75" height="37" rx="12" ry="12"/><rect class="cb" x="880.14" y="1108.55" width="75" height="37" rx="12" ry="12"/><rect class="cc" x="838.11" y="1128.03" width="75" height="37" rx="12" ry="12"/><rect class="cd" x="757.92" y="1127.7" width="75" height="37" rx="12" ry="12"/><rect class="ce" x="636.79" y="1105.08" width="75" height="37" rx="12" ry="12"/><rect class="cf" x="531.52" y="1073.29" width="75" height="37" rx="12" ry="12"/><rect class="cg" x="454.48" y="1036.82" width="75" height="37" rx="12" ry="12"/><rect class="ch" x="403.6" y="996.46" width="75" height="37" rx="12" ry="12"/><rect class="ci" x="376.8" y="953.01" width="75" height="37" rx="12" ry="12"/><rect class="cj" x="372" y="907.27" width="75" height="37" rx="12" ry="12"/><rect class="ck" x="387.12" y="860.04" width="75" height="37" rx="12" ry="12"/><rect class="cl" x="420.09" y="812.12" width="75" height="37" rx="12" ry="12"/><rect class="cm" x="468.82" y="764.29" width="75" height="37" rx="12" ry="12"/><rect class="cn" x="531.24" y="717.37" width="75" height="37" rx="12" ry="12"/><rect class="co" x="605.27" y="672.14" width="75" height="37" rx="12" ry="12"/><rect class="cp" x="688.83" y="629.41" width="75" height="37" rx="12" ry="12"/><rect class="cq" x="779.85" y="589.98" width="75" height="37" rx="12" ry="12"/><rect class="cr" x="876.24" y="554.63" width="75" height="37" rx="12" ry="12"/><rect class="cs" x="975.93" y="524.17" width="75" height="37" rx="12" ry="12"/><rect class="ct" x="1076.84" y="499.39" width="75" height="37" rx="12" ry="12"/><rect class="cu" x="1176.9" y="481.1" width="75" height="37" rx="12" ry="12"/><rect class="cv" x="1274.02" y="470.09" width="75" height="37" rx="12" ry="12"/><rect class="cw" x="1366.13" y="467.16" width="75" height="37" rx="12" ry="12"/><rect class="cx" x="1451.14" y="473.11" width="75" height="37" rx="12" ry="12"/><rect class="cy" x="1526.99" y="488.73" width="75" height="37" rx="12" ry="12"/><use width="75" height="37" transform="matrix(1, 0, 0, -1, 1591.59, 551.82)" xlink:href="#b"/></svg>