<svg xmlns="http://www.w3.org/2000/svg" viewBox="0 0 901.56 1020.77"><defs><style>.a{fill:#f47da5;}</style></defs><title>coronal-ejection</title><path class="a" d="M689.5,721.24l0,0c.53.79,1.05,1.59,1.57,2.39A24.43,24.43,0,0,0,689.5,721.24Z"/><path class="a" d="M548.85,73.76c-23.92-19.21-53.32-33-84.17-35.32-20.66-1.55-39.9,2.94-57.59,11.41C359,18.3,303.6-2.36,245.31.22a191,191,0,0,0-95.57,30.07c-31.5,20.35-57,49.13-76.27,81.12C54.39,143.13,41.23,178,31.16,213.55A902.19,902.19,0,0,0,7.65,322.37C-3.71,396.19-4.31,472.87,19,544.56c20.45,63,59.29,118.92,113.86,157,41.49,28.92,89.54,47.65,139.18,57.35,24.31,41.77,57.22,78.86,94.72,108.41a154.81,154.81,0,0,0,11.91,23c18.77,29.93,44.27,54,73.68,73.4a372.54,372.54,0,0,0,97,45.83c32.15,9.67,66.35,14.2,99.75,9.2,39-5.86,73.58-25.6,104.07-49.92,31.89-25.43,61-54.76,88.08-85.23q20.55-23.13,39.35-47.74,9.4-12.3,18.33-24.93c2.91-4.12,3.66-8,1.31-12.38l.08.1-.18-.29-.28-.49c-1.15-1.92-3.35-6.77-5.58-3.31-.4.61,3,3.66,2.68,4.21.58-.88,1.2-1.34,1.84-1.28,1.07,5.22-2.61,9.32-5.82,13.8q-8.48,11.82-17.35,23.33-17.74,23-37.06,44.77c-25.44,28.64-52.73,56.08-82.28,80.5-28.69,23.73-61,44.28-97.81,52.41-31.15,6.88-63.59,5-94.49-2.32-31.77-7.47-62.18-20.36-90.66-36.18-31.66-17.6-61.54-39.71-84-68.44a147.85,147.85,0,0,1-21.18-37l.73.58C433.31,919.07,514,949.45,596,949.29c9.92,0,19.83-.51,29.71-1.41-.73.07-1.89-4.29-2.68-4.22-79.35,7.23-159.4-14.91-226.35-57.44q-15.3-9.71-29.7-20.83c-5.92-16.34-8.58-33.77-6.4-51a75,75,0,0,1,16.57-39,76,76,0,0,1,8.94-9q13.65-.64,27.27-1.92a387.32,387.32,0,0,0,45.5,33.09q10.33,6.42,21,12.24c-1.27-.69-1.39-3.51-2.69-4.22a415.1,415.1,0,0,1-61.95-41.29l2.55-.24a292,292,0,0,0,44.68,19.71c1.28.44,2.58.86,3.87,1.28a297.58,297.58,0,0,0,168.54,75.41,277.61,277.61,0,0,0,41.68,1.18c14.36-.68,29.63-1.8,43.4-6.15,7.63-2.41,14.46-6.27,19.29-12.76a22.25,22.25,0,0,0-2.69-4.22l-5-3.87,23.59,3.18c-1-.14-1.6-4.06-2.69-4.21L725.61,830a.9.9,0,0,1,.52.4l-.52-.4,1.84,2.88a4.34,4.34,0,0,0,.85,1.33l7.23,5.63c-9.25,11.13-24.62,13.6-38.29,15.46a269.68,269.68,0,0,1-38.73,2.44,288.38,288.38,0,0,1-77.32-11.42A298,298,0,0,1,469.54,786.1q9.7,3.06,19.6,5.44c-1.15-.27-1.5-3.93-2.69-4.21q-11.62-2.82-23-6.59-7.2-6.57-13.94-13.65,16.08,4.11,32.34,7.58c40.51,32.74,87.8,57.73,140.54,58.48a163,163,0,0,0,42.28-4.86l15.44,4.54c-1.18-.35-1.46-3.86-2.68-4.22l-6.75-2a131.12,131.12,0,0,0,45.76-23.86,182.17,182.17,0,0,0,18.23,1.39c-.9,0-1.72-4.19-2.68-4.21q-5.78-.15-11.46-.68c1.24-1.11,2.46-2.24,3.66-3.41.27-.26-2.9-4-2.68-4.21q-3.74,3.63-7.69,6.87c-34-4.39-66.06-18.23-95.23-36.27a343.9,343.9,0,0,0,43.15-7.58c21,12.2,42.26,23.85,63.58,35.41-.27,1.24-.53,2.47-.81,3.7s2.94,3.1,2.68,4.21q1.57-6.81,2.72-13.66l22.54,15c-1.25-.83-1.4-3.36-2.68-4.21l-19.49-13a267.43,267.43,0,0,0,3-51l1.44,1.68q6.09,10.33,12,20.78c.73,1.31,2,3,2.6,4.06q-6.81-12.12-13.92-24.08l2.95,3.45c-1.07-1.25-1.62-3-2.69-4.22l-2.29-2.68-.09-.16a350.28,350.28,0,0,0-4.43-43.52,68.32,68.32,0,0,1,26.05-1.67c-.23,0-.52-.39-.83-.89.28.3.55.6.83.89l-2.16-3.38a3.62,3.62,0,0,0-.53-.83,59,59,0,0,1-12.68-19.13,71.26,71.26,0,0,1-3-8.89c-.63-2.42-.84-5-1.27-7.44,3.37-15.52,6.11-31.16,8.09-46.93a524.15,524.15,0,0,0,4-74.3q17.5,40.59,33.34,81.86,10.39,27,20.19,54.17c.55,1.53,2.13,2.69,2.68,4.22-17.31-48-35.9-95.55-56.26-142.32q-.36-15.9-1.66-31.75-1.09-13.19-2.86-26.29c-1.25-9.28-2.07-18.77-5.8-27.39Q724.37,407.17,711.7,378q-1.53-3.57-3.08-7.12a5.92,5.92,0,0,0,.36-1.69,1334.29,1334.29,0,0,1,91.55,277.07q8.88,41.85,15.05,84.19c.22,1.52,2.47,2.73,2.69,4.22a1333.81,1333.81,0,0,0-76-288.91q-15.45-39.89-33.47-78.7a7.6,7.6,0,0,0-.84-1.31l-1.85-2.9c.16.33.31.67.47,1a4.13,4.13,0,0,1-.47-1,6.11,6.11,0,0,1,.19,2.56L661.49,262c-16.12-37.21-31.19-75.23-51.08-110.64C594.23,122.55,574.81,94.61,548.85,73.76ZM184.57,728C120.35,699.15,66.63,651.29,36.63,587c-30.83-66.12-38-140.4-32-212.43,3-35.91,9.09-71.49,16.82-106.66,7.63-34.7,16.74-69.22,30.06-102.22C77.91,100.17,124.65,37.77,193.86,14.36c61-20.64,128.84-8,184.83,21.21,9,4.71,17.8,9.83,26.36,15.29l-1.62.8A270.54,270.54,0,0,0,338,50.74a250.58,250.58,0,0,0-78.42,21.6c-31.71,14.74-60.08,35.87-85.13,60.13-25.34,24.54-47.47,52.23-67.75,81-18.41,26.18-35.49,53.57-47.93,83.14C46.4,326,39.36,357.15,39.45,389c.08,31,6.32,61.87,17.18,90.87,21.92,58.52,62.45,109,109.78,149a548.58,548.58,0,0,0,72.37,51.69,328.75,328.75,0,0,0,30.76,73.93A386.81,386.81,0,0,1,184.57,728ZM657.62,602.24,652,594.69l-3.4-4.53c-.94-1.26-2.56-5-1.69-1.23,2.38,10.2,9,20.07,14.6,28.82,5.85,9.19,12.25,18,18.38,27a137.66,137.66,0,0,1,10.87,18.94,1162.89,1162.89,0,0,0-80.11-103.31q-26.94-30.95-56.06-60c-23.18-35.52-49.44-69.3-80.54-98.27a354.18,354.18,0,0,0-40.52-32.83c0-.16,0-.32,0-.49.64-6.05,1.35-12.14,2.18-18.23,16.78,6.45,32.88,14.9,48.27,23.8a521.37,521.37,0,0,1,87.69,63.87,527.86,527.86,0,0,1,76.26,85.31q5.49,21,9.57,42.24,3.63,19.13,6.06,38.45c.14,1.18.29,2.35.43,3.52.07.59.13,1.17.2,1.76.56,2.27.26,2.35-.92.25C661.15,608,659.29,604.47,657.62,602.24Zm29.61,119.17c.19-.75.45-1.35.78-1.4s.89.45,1.49,1.23c-.4-.59-1.88-2.88-3-4.3a3.87,3.87,0,0,0,3.6-.21l-.88-1.37c-.67-1.22-1.53-2.82-1.81-2.85-1.52-.15-3-.33-4.55-.5-.78-5.52,6.36-9.14,10.81-11.37,1.8-.9,3.59-1.79,5.4-2.66a58.31,58.31,0,0,1-.91,10.08,45.2,45.2,0,0,1-3.95,12.14,41.46,41.46,0,0,1-2.53,4.38c-.19-.31-.4-.61-.6-.91.19.32.38.64.56,1-.24.37-.49.74-.75,1.1s-1.93,3.08-2.46,3.11a1.57,1.57,0,0,1-1-.58,10,10,0,0,1-.68-3.57,17.92,17.92,0,0,1,.43-3.23c.19.3.37.59.5.83Zm-307.81,41a478.85,478.85,0,0,1-109.07-7.67,316.45,316.45,0,0,1-26.91-63c-1-3.31-1.92-6.65-2.8-10a595.63,595.63,0,0,0,82.11,40.56q4.44,1.78,8.91,3.5h0a635.24,635.24,0,0,0,65.46,25.88l.62.41a90.62,90.62,0,0,0-14.42,10.1C382,762.28,380.72,762.35,379.42,762.4ZM177.8,201.46C215.16,187,255.84,188.71,294,199a141.7,141.7,0,0,0-1.47,38.41,131,131,0,0,0,4.3,22.29c.43,1.54,2.25,2.69,2.68,4.21-6-21.36-6.13-43-2-63.92,8,2.29,16,5,23.71,7.94a435.77,435.77,0,0,1,49.41,22.85,62.34,62.34,0,0,0-7.06,12.66c-6.14,14.81-7.89,30.88-7.86,46.93-35.69-.64-69.95,17.19-94.28,43.52a217.43,217.43,0,0,1,7-41.57c.3-1.11-3-3.17-2.69-4.22a218.5,218.5,0,0,0-7.44,49.3,143.87,143.87,0,0,0-14,19.12c-23.25,38-31,84.18-29.66,129l-5.41-5.79c-11.67-12.49-22.93-25.6-35.16-37.54-4.28-4.18-9.89-8.2-16.17-6.21-5.55,1.77-9,7.24-12.57,11.45-6.87,8.08-17.21,11.81-24.79,2.3-7.34-9.22-6.86-24.09-7.36-35.12-.69-15-.81-30.09-.23-45.12,1.17-30.23,5.21-60.44,13.29-89.63A298.33,298.33,0,0,1,153,214.22,130.92,130.92,0,0,1,177.8,201.46Zm-19.49,3.69c17.13-28,39.32-52.8,66.61-71.48,25.05-17.15,54.54-29.31,85.32-28.54a132.38,132.38,0,0,1,27,3.61c-20.53,25.53-36.52,55.39-42.68,87-31.16-8.92-63.69-12.17-95.93-5.44A145.94,145.94,0,0,0,158.31,205.15Zm291.56,76.54c-9.21,20.3-13.69,42.7-16.77,64.75q-6.21-2.35-12.52-4.36c-19.32-6.1-39.89-9-59.59-6.34-.57-5.45-1.08-10.9-1.49-16.37-.62-8.19-1.1-16.52-1.1-24.83.81,0,1.61,0,2.41,0a101.28,101.28,0,0,1,18.5,2.52c-1.13-.25-1.51-3.94-2.69-4.21a100.57,100.57,0,0,0-18.17-2.43c.24-12.22,1.66-24.36,5.35-36a69.18,69.18,0,0,1,11-21.4C401,247.41,426.07,264.1,449.87,281.69Zm-73.7-50.33A53.6,53.6,0,0,1,406,212.93c22.49-5,45.45,2.65,64,15.4A161.88,161.88,0,0,1,483.64,239,98.45,98.45,0,0,0,455.84,270c-1.88,3.24-3.6,6.56-5.19,9.94A664.4,664.4,0,0,0,376.17,231.36ZM559.89,731.48q-7.27-.57-14.55-1c-31.19-1.74-63.36-1.43-94.33,4.12q-10.71-5.68-21.18-11.78a27.43,27.43,0,0,1-3.91-10c-2.2-13.07,4.47-25.56,12.3-35.52,8.08-10.28,20.7-20.23,30.87-31.34q17.32,9.78,35.23,18.32A578.77,578.77,0,0,0,565.38,725q2.19,1.88,4.4,3.73Q564.85,730.13,559.89,731.48Zm-12,3.24c-21.84,5.76-43.86,10.94-66,15.24a.88.88,0,0,0-.15-.12Q469.5,744.2,457.5,738c23.58-3.86,47.93-4.53,71.38-4C535.22,734.11,541.56,734.37,547.89,734.72ZM431.74,747.09c1.15,1.53,2.31,3.06,3.49,4.56-5.72-1.07-11.42-2.26-17.11-3.5,1.41-.53,2.83-1,4.25-1.53q2.44-.82,4.91-1.59C428.77,745.72,430.25,746.42,431.74,747.09Zm-42.45-5.92a320.3,320.3,0,0,1-26.14-29q11.67,6.68,23.56,12.92,16.85,8.88,34.08,17c-3.77,1.25-7.51,2.64-11.17,4.21Q399.42,743.87,389.29,741.17Zm5.38,6.37-.47-.15c-1.18-.77-2.36-1.54-3.52-2.32l2,.52Zm24.22-315.18c-.42.22-.43,2.45-.3,5a121,121,0,0,0-14.45-2.81,123.28,123.28,0,0,0-24.19-.74q-2.32-8.2-4.42-16.5c10.82-1,21.85.61,32.28,3.5a146.94,146.94,0,0,1,20.68,7.48c.11,4.06.29,8.12.5,12.18l-2.94-1C425.1,438.17,420.24,431.66,418.89,432.36Zm6.06,6.81c-1.19-.37-2.4-.72-3.61-1.06,0-.9.1-1.49.24-1.53C422.13,436.4,423.79,438,425,439.17Zm34.72,166.69q7,10.47,14.5,20.63a57.52,57.52,0,0,1-11.67,12.74q-4.08-2.37-8.13-4.81a567.65,567.65,0,0,1-54.12-37c6.59-16.28,16.23-31.21,27.19-45Q442.23,579.87,459.67,605.86ZM479,633q10.08,13.34,20.89,26.11Q485.17,652,470.84,644A79.16,79.16,0,0,0,479,633Zm-50.3,89.17q-10.19-6-20.12-12.4c-8.74-17.46-14.82-36.06-16.7-55.07a78.54,78.54,0,0,0,25.37,4.95,75.85,75.85,0,0,0,45.07-13.9c-7.85,7.94-16.45,15.28-22.9,22.58-8.82,10-17.28,22.65-16.62,36.55C423.13,711.05,425.46,716.87,428.74,722.2Zm3,4.42c1.6,2.16,3.31,4.22,5.06,6.17-2.68-1.94-5.36-3.89-8-5.89-3.91-3-7.75-6-11.56-9.11Q424.42,722.32,431.73,726.62Zm-5.94,12.24c.31.45.63.89.94,1.33l-2.31.69c-22.15-10.15-43.89-21.2-64.92-33.42A274.9,274.9,0,0,1,320.44,637c25.54,28.66,55.25,53.48,87.36,74.71l2.41,2.14A284.77,284.77,0,0,0,425.79,738.86ZM363.44,368.51q3.87,22.51,9.49,44.63a59.41,59.41,0,0,0-25.3,8c-12.35,7.36-21.41,18.42-28.11,31a167,167,0,0,0-18.3,11.7c-3.4,2.49-6.69,5.12-9.9,7.84-1.09-2.12-2.17-4.26-3.22-6.42a215.65,215.65,0,0,1,2.14-24.71c4.25-28.77,15.12-63.22,39.42-81.5A203.12,203.12,0,0,1,363.44,368.51Zm-29.95-12.09a61.26,61.26,0,0,1,26.64-9.51q1.22,9.13,2.73,18.21A240.62,240.62,0,0,0,333.49,356.42ZM288,474.61c0-2.91,0-5.82.06-8.74,1,2,2,4,3.08,6C290.1,472.78,289.06,473.69,288,474.61Zm5.53,1.74q5.37,9.91,11.37,19.47l-.3,1.51a234.31,234.31,0,0,0-3.8,53.95c-.55-1.74-1.1-3.49-1.62-5.25a265.6,265.6,0,0,1-11-64.88q2-1.83,4-3.62Zm-8,.54a176.47,176.47,0,0,0-22.85,25.86,289.42,289.42,0,0,1,2.7-38.55,219.91,219.91,0,0,1,7.52-34.35,306.91,306.91,0,0,0,12.56,30.64C285.29,466,285.32,471.43,285.53,476.89Zm.33,6.46a258.62,258.62,0,0,0,5.71,39.46,302,302,0,0,0,9.51,33.29q.8,12.6,2.85,25.08-19.62-20.94-39.16-41.92c-1.12-9.46-1.79-19-2-28.47A174.24,174.24,0,0,1,285.86,483.35Zm34.42,117.11c19.88,38.25,46.89,73.08,77.75,102.3-28.56-19.51-55.06-41.91-78.25-67.57a269,269,0,0,1-13.07-49.14C311.19,590.89,315.7,595.72,320.28,600.46Zm-3.69-5.76c-3.43-3.65-6.84-7.31-10.27-11-1-6.46-1.77-13-2.28-19.49a335,335,0,0,0,14.16,32.15Zm-12.83-34.57A239.13,239.13,0,0,1,305,516.59c.67-5.51,1.51-11.09,2.58-16.67q8.25,12.7,17.54,24.62a445,445,0,0,0,71.23,72.08,123.85,123.85,0,0,0-7.06,53.66q-3.72-1.31-7.38-3c-24.28-11-43.82-30-62-49.11A320,320,0,0,1,303.76,560.13Zm-10.07-83.9a172.24,172.24,0,0,1,22-16A172.39,172.39,0,0,0,305,495.52Q299,486.07,293.69,476.23Zm28.85-117.48c-14.91,13.58-24,32.71-29.44,51.83a205.25,205.25,0,0,0-7.62,49.17,277.06,277.06,0,0,1-12.15-31.26c6.63-21,16.82-40.91,31.56-57.1a100.37,100.37,0,0,1,15.29-13.7c1,.12,2.08.26,3.12.4C323,358.31,322.79,358.52,322.54,358.75ZM271.4,422.2A260,260,0,0,1,261.58,369c13.12-9.47,29.67-12.52,45.61-12.19,1.85,0,3.69.13,5.54.25C292.8,373.7,279.56,397.43,271.4,422.2Zm-.53,1.6c-1.8,5.63-3.35,11.31-4.65,17a264.17,264.17,0,0,0-6.44,66.13q-4.56,6.72-8.49,13.85-1.38-4-2.66-8.07a288,288,0,0,1-11.36-53c-1.9-16.38-2.75-33.26.29-49.55,2.85-15.24,9.63-29.75,21.9-39.58A264,264,0,0,0,270.87,423.8Zm-10.76,91q.57,10.8,1.95,21.55l-8.43-9-.33-.91Q256.48,520.47,260.11,514.81Zm2.16,23.09q1.08,8,2.61,16-5.7-12-10.39-24.36Zm2.69,2.88q5.51,5.88,11,11.78c9.5,10.16,18.86,20.58,28.34,30.88a270.78,270.78,0,0,0,13.58,49.62q-6.19-6.94-12.06-14.2a331.23,331.23,0,0,1-37.77-58.48Q266.19,550.63,265,540.78Zm21.5,51.83a367.52,367.52,0,0,0,32.1,42.25A279.71,279.71,0,0,0,333.32,667a322,322,0,0,0,25.85,40.32q-13.17-7.66-25.94-15.95-3.44-2.24-6.84-4.55-5.29-6.45-10.22-13.2c-23.91-32.91-40-71.63-47.88-111.93Q276.63,577.53,286.46,592.61Zm118.81,115C371.5,677.76,342.7,642.13,322,602.23c7.36,7.57,14.89,15,22.71,22,13,11.7,28.22,23,44.95,29.62a128.2,128.2,0,0,0,2.53,14.36,178,178,0,0,0,15.62,41Zm44-59.94c-18.58,9.08-38.63,9.59-57.67,3.42a117.43,117.43,0,0,1,4.62-42.4q1.45-4.81,3.28-9.49a526.32,526.32,0,0,0,60.85,41.71A68.35,68.35,0,0,1,449.28,647.66Zm-46.53-65.88A131.86,131.86,0,0,0,397,594.84c-34.44-27.15-65.59-58.91-89.39-95.24,2.89-15,7.45-30,14.72-43.28,17.78-9.82,37.36-16.32,57.59-18.08a614.65,614.65,0,0,0,45,109.51A203,203,0,0,0,402.75,581.78Zm-75.48-133.6a91.75,91.75,0,0,1,6.15-8.2c8.87-10.48,20.49-18.39,34-21.4a62.91,62.91,0,0,1,6.64-1.09q2.18,8.25,4.58,16.45A144.06,144.06,0,0,0,327.27,448.18ZM374.45,413c-1.8-7.37-3.48-14.77-5-22.21q-2.19-10.73-4-21.52a379.08,379.08,0,0,1,40.33,18.3q11.55,6,22.69,12.62-.37,12.54-.12,25.08C411.87,417.54,392.74,411.72,374.45,413ZM365,365.92c-1-6.39-1.94-12.8-2.73-19.22,23.95-1.9,47.92,9.69,68.14,23q-1.31,14-1.8,28C408.6,385.48,387.22,374.25,365,365.92Zm-5.39-23.27A62.08,62.08,0,0,0,327,355l-2.31-.42a98.53,98.53,0,0,1,34.65-13.87C359.42,341.38,359.51,342,359.59,342.65Zm-37.27,7.25c-1.75,1.15-3.45,2.35-5.12,3.59-13.76-1.73-27.95-1.45-41.15,2.74a59.38,59.38,0,0,0-14.85,7.07c-.38-7.16-.46-14.33-.19-21.49,23.86-27.71,57.68-47.08,94.74-47.31.13,6.95.55,13.87,1.06,20.66q.79,10.48,2,20.91A92.38,92.38,0,0,0,322.32,349.9Zm-63.4,15a58,58,0,0,0-19.42,25c-6.56,16-7.24,33.91-6.21,51a280.26,280.26,0,0,0,9.27,56c2.3,8.52,5,16.88,8.06,25.11-.24.44-.48.89-.71,1.34l-4.58-4.91-28.21-30.2c-1-39.73,5.42-80.26,23-115.15a154.33,154.33,0,0,1,18-27.83C258.12,351.8,258.39,358.36,258.92,364.88Zm-9.46,159.3a167.64,167.64,0,0,0-12.52,31.3,196.92,196.92,0,0,0-4.72,20.79,232.81,232.81,0,0,1-10.17-38.87,335.92,335.92,0,0,1-4.9-47.8Zm-13,48a175.9,175.9,0,0,1,16.17-44.54l.08.09q5.58,14.26,12.48,28a303.28,303.28,0,0,0,37.83,98.19,311.09,311.09,0,0,0,22.49,32.33c-23.35-15.87-45.32-34.08-63.23-56a179.6,179.6,0,0,1-27.74-47.7C235.14,579.05,235.76,575.6,236.5,572.16Zm11.07,37.6c15.2,24.44,34.61,45.34,57.06,63.3,8.18,6.55,16.65,12.71,25.33,18.57A306.55,306.55,0,0,0,378,738.08q-5.1-1.47-10.18-3-19.07-5.88-37.71-13a524.09,524.09,0,0,1-93-55.12c-5.6-27.18-7-55.23-2.85-82.65A190.33,190.33,0,0,0,247.57,609.76ZM385.42,743.61l2,1.48q-6.48-2.25-12.92-4.62Q380,742.09,385.42,743.61Zm-3-4.28a297,297,0,0,1-51.31-46.92c10.28,6.88,20.85,13.34,31.59,19.49a346.2,346.2,0,0,0,25.2,28.9C386.09,740.31,384.25,739.84,382.43,739.33Zm44.65.76a224.74,224.74,0,0,1-16-25.5q13.64,11.8,28.29,22.36-3.4.76-6.8,1.64Q429.82,739.29,427.08,740.09Zm14.12-4.18-.42-.41c-2.62-2.61-5.23-5.21-7.55-8q6.88,4,13.88,7.82c-1.73.34-3.46.71-5.18,1.08Zm60.27-76-.54-.62q-11.24-13-21.65-26.65c4-6.78,6.48-14.1,6.19-22.21,20.58,26.81,44.44,50.66,70.4,72.21A566,566,0,0,1,501.47,659.88ZM474.4,626.13a589.34,589.34,0,0,1-46.79-73.94Q433,545.4,438.79,539l2.48-2.76a339.23,339.23,0,0,0,24.65,46.23q7.5,11.87,15.84,23A45.43,45.43,0,0,1,474.4,626.13ZM425.14,547.5A597.67,597.67,0,0,1,381.2,438.14c2.78-.21,5.58-.35,8.38-.38a118.44,118.44,0,0,1,29.26,3.41c.16,2.06.33,3.82.36,4.34a248.21,248.21,0,0,0,7.86,49.95,278.49,278.49,0,0,0,12.08,35.73C434.29,536.46,429.6,541.9,425.14,547.5ZM437,523.09a263.45,263.45,0,0,1-12.61-49,237.4,237.4,0,0,1-2.53-24.39c0-.6-.33-4.51-.47-7.91q3.43.9,6.81,2a25.85,25.85,0,0,1,1.12,3.32,4.76,4.76,0,0,0,1,1.62l1.65,2.6c-.07-.24-.15-.47-.22-.71a1.77,1.77,0,0,1,.22.71q-.21-3.19-.37-6.39c25.08,8.78,47.75,24.59,68.36,41.73-15.72,3.09-30.64,14.34-42.32,25.58-6.08,5.86-12.09,11.92-17.9,18.2Q438.37,526.81,437,523.09Zm-5.54-81.7q-.27-5.94-.4-11.89c18.1,8.45,34.71,20.15,50,32.91,9,7.5,17.67,15.36,26.16,23.45a42,42,0,0,0-5.24.48C480.66,468.15,457.57,451,431.49,441.39Zm80,48.59c12.22,11.86,24,24.2,35.53,36.64.88,1,1.74,1.91,2.61,2.87q-15.3-14.58-31.09-28.66c-4-3.56-8-7.15-12.17-10.72A39.89,39.89,0,0,1,511.51,490Zm1.45.09a42.32,42.32,0,0,1,23.62,9.54c10.74,8.75,17,21.13,22.18,33.74,1,2.6,2,5.21,3,7.84q-1.83-1.79-3.67-3.56Q536.36,513.11,513,490.07Zm50.59,52.84c-6.87-18.49-16.61-38.76-32.82-49.89a38.91,38.91,0,0,0-22.1-7.19l-2.69-2.63c-22.06-21.28-45.53-41.94-73.11-55.78l-1.79-.88q-.19-12.33.24-24.67c46.2,28,87.41,64.07,125.56,102.3,16.35,25.19,31.11,51.36,45.28,77.89Q583.15,562.17,563.55,542.91Zm39.83,41.51q7.2,13.55,14.26,27.2-19-26.08-39.61-50.88c-4.16-5-8.4-9.93-12.66-14.85Q584.72,564.79,603.38,584.42Zm-81-114.77c-27.93-25.55-57.54-49.47-89.72-69.5l-1.26-.77q.54-13.92,1.91-27.79c2.49,1.67,4.91,3.37,7.27,5.05,33.78,24.24,62.81,54.5,88.07,87.4,9,11.68,17.41,23.67,25.47,35.9Q538.54,484.48,522.35,469.65Zm-99.62-107.4c-15-9.29-31.64-17.15-49.31-19.31a68.27,68.27,0,0,0-11.67-.42c-.08-.72-.17-1.44-.26-2.17a109.93,109.93,0,0,1,30.75-.83,172.53,172.53,0,0,1,40.45,9.93c-.2,1.48-.4,3-.59,4.45-.57,4.47-1.06,9-1.5,13.44C428,365.6,425.39,363.89,422.73,362.25ZM138.27,234c-25.38,57.53-31.06,121.81-27.42,184,.62,10.6,2.31,20.48,8,29.62,4.05,6.49,9.46,13.83,18.18,11.88,11.79-2.64,15.32-21.69,28.68-19.75,6.78,1,11.77,7.36,16.14,12l18.41,19.71,14.35,15.36A350.65,350.65,0,0,0,218,524.36a239.56,239.56,0,0,0,13.9,54c-4.63,28.79-3,58.42,3.12,87-35.3-26.67-66.86-58.18-93-94.79-54.23-76-83-179.39-52.21-270.3C100.46,268.65,119,239.8,145,219.89Q141.43,226.91,138.27,234Zm158.4,474.05a591.5,591.5,0,0,1-56.87-29.57c-.72-2.83-1.4-5.68-2-8.54A493,493,0,0,0,296.67,708.09Zm100,40.1c-.78-.72-1.56-1.44-2.33-2.17,3.37.89,6.74,1.74,10.13,2.58-.87.42-1.74.84-2.6,1.28Zm15.69,2.28q13.16,3.06,26.42,5.56l.8,1c-3.3.46-6.61.87-9.93,1.28q-10.47-2.94-20.86-6.19C409.94,751.52,411.13,751,412.33,750.47ZM443,761.08l.9,1-2.93-.76C441.64,761.25,442.32,761.17,443,761.08Zm-2.67-4.2c-.19-.22-.4-.45-.59-.68.8.15,1.62.28,2.43.42Zm-4.26-5.07q-1.74-2.13-3.43-4.31,6.89,3.11,13.81,6.11C443,753,439.52,752.45,436.07,751.81Zm-5-7.91c4.36-1.26,8.76-2.37,13.21-3.36,4.58,4.59,9.27,9.15,14.08,13.63l-2.6.41Q443.34,749.42,431.07,743.9Zm18.38.07q7.11,4.78,14.43,9.27c-1.26.22-2.52.44-3.78.64l-1-.85Q454.25,748.56,449.45,744Zm-2.36-4c2.09-.43,4.2-.84,6.31-1.22,1.56.83,3.13,1.66,4.7,2.47q9.58,5,19.34,9.6c-3.39.64-6.79,1.28-10.19,1.87Q457,746.62,447.09,739.94ZM479,762.08q6.22,3.45,12.56,6.69-9.75-3.71-19.46-7.54Zm-5.58-5.85c22.64-4.06,45.11-9.07,67.33-14.73q10.93-2.79,21.83-5.81c5.89.46,11.79,1,17.67,1.61,9.27,7.41,18.83,14.57,28.71,21.27a585,585,0,0,1-73.92,3.3c-19.61-.35-39.19-1.72-58.67-4ZM576,731.94q8.71-2.48,17.39-5c-.41.12-2.21-4.36-2.69-4.22q-9.6,2.85-19.26,5.59a566.09,566.09,0,0,1-65.4-63.2q20.26,9.58,41,17.53c5.29,2,10.62,4,16,5.83,16.53,13.26,33.85,25.65,51.67,37.3q12,7.85,24.24,15.3c-20.44-3-40.93-5.88-61.49-8ZM559.84,684c-2.09-1.67-4.18-3.34-6.24-5-25.07-20.6-48.32-43.65-68.15-69.23a37.92,37.92,0,0,0-.87-6.27,4.46,4.46,0,0,0-1.11-1.76l-1.57-2.46a44.92,44.92,0,0,1-.1,5.7,319.26,319.26,0,0,1-39.94-69.4,298.16,298.16,0,0,1,26.44-26.29c9.86-8.45,21.24-16.26,34.25-18.65.61-.11,1.21-.2,1.82-.28q27.81,23.46,54,48.75c1.53,1.71,3.06,3.41,4.58,5.13,4,10.93,7.46,22,11.2,33q8.57,25.14,17.12,50.3l8.25,24.21c.53,1.54,2.17,2.7,2.69,4.22-12-35.21-23.83-70.48-36-105.65-.46-1.32-.93-2.66-1.41-4q28.34,32.29,53.74,67c16,30.85,31.67,61.86,48.61,92.07l2.83,5A562,562,0,0,1,559.84,684Zm59.69-69.3a930.77,930.77,0,0,1,53.8,82.53c2.8,4.85,5.54,9.73,8.26,14.62q-5.64-.64-11.26-1.41C652.63,679,636.23,646.76,619.53,614.72Zm75.73,79.6c-5.63,2.75-18.34,7.37-14.35,15.73a1015.73,1015.73,0,0,0-62.27-97q-7.35-14.12-14.84-28.14c32.69,34.3,64,70,94.87,105.81.07.63.16,1.26.21,1.89ZM602.53,582.49c-14.2-26.46-29-52.6-45.26-77.89q9.57,9.6,18.9,19.34a1146.69,1146.69,0,0,1,114.9,140.47,87,87,0,0,1,7.47,25C667.27,653.14,635.56,617.16,602.53,582.49Zm90.52,84.77q7.32,10.63,14.38,21.45-3.31,1.42-6.59,2.95A89.86,89.86,0,0,0,693.05,667.26ZM604.87,469.57a529.38,529.38,0,0,0-86.76-76c-25.45-17.76-52.84-34.55-82-46,2.73-19,6.77-37.86,13.82-55.57q1.56-3.94,3.38-7.78c1.22.91,2.46,1.82,3.68,2.74A722.4,722.4,0,0,1,572.69,396.1q12.88,15.18,24.91,31.07c-1-1.32-1.68-2.9-2.68-4.22A722.74,722.74,0,0,0,481.3,304.14q-13.29-11-27.15-21.55c7.76-15.94,18.66-30.2,33.34-40.24,12.83,11.67,24.29,25.08,35.33,38.21a598,598,0,0,1,52.24,72.12,638.85,638.85,0,0,1,63.75,139.41q4.77,15,8.8,30.23A550.34,550.34,0,0,0,604.87,469.57ZM484.69,238.2c-18-16.56-39.68-30.18-64.83-31-19.5-.62-36.64,7.39-47.9,21.79q-13.15-7.2-26.63-13.67a328.91,328.91,0,0,0-47.17-18.53c7-31.68,23.59-61.69,44.23-86.77,16.42,4.47,32.2,11.6,47,19.82,45,25,85,58.87,119.72,97l-1.21.32A78.92,78.92,0,0,0,484.69,238.2ZM339.47,106c-22.79-6-46.49-7-70.52.34-51.59,15.73-92.36,56.83-118.58,103.5a131.46,131.46,0,0,0-16.6,12.55c-17,15.12-30,34.26-39.34,54.91-39.12,86.54-16.46,189.77,31,268.11a445.24,445.24,0,0,0,84,101.25q12.72,11.37,26.24,21.69,1,4.53,2.21,9-11.38-6.79-22.48-14.08C156.61,624.51,101.7,574,70.42,509.9c-26.68-54.64-36.55-118-20.15-177.16,8.32-30,22.44-58.11,38.81-84.5a650,650,0,0,1,59.2-80.86c41.77-48.55,93.79-90,156.84-106a265,265,0,0,1,92.45-6.49,177.44,177.44,0,0,0-28.7,20.84A270.18,270.18,0,0,0,339.47,106Zm19,700.08c-3.44,19.57-.17,39.62,7,58.12-37.1-28.93-69.16-64.6-92.68-105.2a429.9,429.9,0,0,0,47.13,6.42,509.31,509.31,0,0,0,58.58,1.26A74.55,74.55,0,0,0,358.49,806.12ZM392,761.74a99.71,99.71,0,0,1,10.57-6.57l.54.34c1.83,1.67,3.68,3.33,5.55,5Q400.36,761.22,392,761.74Zm18.39-1.42-1.79-1.5c.81.48,1.61,1,2.42,1.45Zm-4.76-5.84c5.12,1.64,10.26,3.25,15.42,4.77-2,.22-3.94.4-5.91.6C412,758.12,408.78,756.32,405.65,754.48Zm55.13,25.36a297.31,297.31,0,0,1-38.47-16.25c3.31-.35,6.62-.72,9.93-1.13q7.85,2.2,15.75,4.24Q454.16,773.48,460.78,779.84Zm-15.51-17.38c-.46-.5-.92-1-1.37-1.51q6.42-.88,12.82-1.9c1.3.2,2.61.39,3.91.6l6.88,2.83c2.78,2.45,5.58,4.89,8.43,7.28Q460.54,766.4,445.27,762.46ZM472,764.29l2.56,1q11.25,4.49,22.57,8.76c-5.89-1.14-11.77-2.32-17.63-3.58C476.93,768.47,474.44,766.38,472,764.29Zm70.85,46.45c-20.42-9.34-39.37-21.5-57.09-35.26q15.78,3.3,31.67,6.07,8.52,3,17.07,6,10.11,3.72,20.41,6.89c33.37,11.08,67,21.23,100.77,31.18C618.24,833.15,577.37,826.54,542.81,810.74Zm154.7-11.36q6.07,1.41,12.22,2.41a130.64,130.64,0,0,1-47.5,22.35c-21.1-6.2-42.19-12.45-63.2-18.94l1.23.23q13.82,2.45,27.78,3.83c-1-.1-1.63-4.1-2.69-4.21a380,380,0,0,1-76.19-15.81q-7-2.36-14-4.75c29.21,4.59,58.61,8,87.94,10.58q18.21,1.6,36.44,2.8c-1-.06-1.67-4.15-2.68-4.21-46.37-3.1-92.92-7.89-138.87-15.77q-16.52-6.81-32.39-15.07c1.8.2,3.59.41,5.38.58a595,595,0,0,0,86.72,2.07c12.39-.61,24.93-1.47,37.43-2.82C640.53,779.18,668,792.49,697.51,799.38Zm-77.39-42.13c-2.63.34-5.26.64-7.89.94q-2.94-1.91-5.84-3.86-11.85-8-23.19-16.73c17.89,1.88,35.73,4.31,53.52,6.92,3.53.52,7.06,1.07,10.59,1.6q4.25,2.55,8.53,5.08C644,753.88,632,755.72,620.12,757.25Zm38.93-6.81L653.16,747c3.17.48,6.33.94,9.49,1.43-1.06-.16-1.57-4-2.69-4.22-5.14-.78-10.28-1.57-15.43-2.34-26.63-16-52.61-33-77.19-52a560.88,560.88,0,0,0,105,24.67q5.68,9.93,11.57,19.74c.78,1.29,2,3,2.6,4.06q-7.08-11.79-13.85-23.75,5.6.75,11.22,1.4c.16.29.32.59.49.88-.72,2.05,0,6.16.36,7.19a26.76,26.76,0,0,0,3.39,5.79c.59.84,1.93,3.24,3,3.18.77-.05,2-1.76,3-3.57q1.23,2.64,2.22,5.37c.21.61.4,1.22.59,1.83a148.59,148.59,0,0,1-21.43,9l-1.65-1.1.86,1.36C669.61,747.69,664.36,749.16,659.05,750.44Zm39.32-8.84a63.36,63.36,0,0,1,1.34,20,1.77,1.77,0,0,0,0,.23l-19-12.67A145.82,145.82,0,0,0,698.37,741.6ZM665,753.87c1.85-.49,3.7-1,5.53-1.51,2.52-.72,5-1.5,7.49-2.32l38.64,32.56C699.37,773.21,682.09,763.7,665,753.87Zm60.44,35.83-1.22-1.92a4.82,4.82,0,0,0-1-1.64l-35.59-30L726.9,782.3C726.45,784.77,726,787.24,725.44,789.7Zm5-36.61a250.41,250.41,0,0,1-3.16,27l-24.74-16.46a63.06,63.06,0,0,0-2.89-22.75,121.41,121.41,0,0,0,15.74-9.75c.12-.09-2.75-4.17-2.69-4.22a120.8,120.8,0,0,1-14.78,9.26,62.73,62.73,0,0,0-3.5-7.13c.87-1.51,1.61-3,1.9-3.53,4.7-8.76,6-18.9,5.14-28.71.59-.29,1.19-.56,1.78-.84q5.06,5.87,10.07,11.73,8.76,10.21,17.5,20.46C731.05,736.47,731,744.77,730.45,753.09Zm.32-27.08c0,.35,0,.71,0,1.07q-13.41-15.71-26.87-31.39c2.07-1,4.14-1.91,6.23-2.81Q720.76,709.26,730.77,726Zm0-.27q-10-16.61-20.52-32.89,1.46-.63,2.94-1.23a119.41,119.41,0,0,1,11.53-4,88.82,88.82,0,0,0,.66,12.61c.19,1.51,2.5,2.74,2.69,4.22a85.87,85.87,0,0,1-.54-14.49A333.71,333.71,0,0,1,730.76,725.74Zm-5.83-43.16a124.52,124.52,0,0,0-17.42,6.1q-7.29-11.16-14.82-22.16a202,202,0,0,0-15.41-25.84c-10.17-14.95-21.46-29.36-27.41-46.65-.58-1.71-2.36-3.71.26-1.17a38.72,38.72,0,0,1,3.39,4.53l6.79,9.06c.58.78,6.5,9.2,6.78,9.06.62-.3-1.36-11.12-1.52-12.29a618.11,618.11,0,0,0-15.18-76.16A507.92,507.92,0,0,1,704,624.48q5.25,12.66,9.8,25.58c.55,1.54,2.15,2.69,2.69,4.22a536.45,536.45,0,0,0-66.46-128.46A652.55,652.55,0,0,0,542.18,304.14c-16.39-21.91-34-43.39-53.75-62.42,1.56-1,3.15-2,4.79-3a74.79,74.79,0,0,1,19.58-7.84q7.08,7.92,13.85,16.06c42.86,51.47,76.79,109.58,105.6,169.88a1569,1569,0,0,1,68.91,170.31c10,29.22,18.86,59.31,24.29,89.89C725.24,678.9,725.06,680.74,724.93,682.58Zm13.67-21.44A90.81,90.81,0,0,0,751,680.44a67.89,67.89,0,0,0-22.91,1.37c1.13-10.09,3.45-20.09,5.72-30l.57-2.56A64.37,64.37,0,0,0,738.6,661.14ZM732.5,641c-2.31,10.16-4.73,20.3-6.31,30.58-3.12-15.61-7.06-31.06-11.53-46.26-8.55-29.12-19-57.67-29.72-86-11.42-30.12-23.53-60-36.69-89.4C624,395.61,596,342.94,562.39,293.8a654.82,654.82,0,0,0-48.76-63.07,62.34,62.34,0,0,1,43.42,5.34c23.73,12.52,38.4,36.71,50.5,59.66a656.59,656.59,0,0,1,33.52,75.76c19.54,52.06,34.2,105.75,50.95,158.72,9.39,29.67,19.44,59.17,31.35,87.94,2.92,7.05,7.29,14.42,8.91,21.83C732.36,640.32,732.43,640.65,732.5,641ZM744.64,517.6A523.53,523.53,0,0,1,743,571.91a519,519,0,0,1-7,52.4c-.85,4.57-1.83,9.12-2.84,13.66-2-5-4.78-9.94-6.78-14.76q-4-9.71-7.8-19.53c-10.08-26.23-18.85-52.94-27.19-79.76-16.69-53.6-31.7-107.82-52.23-160.12a606.51,606.51,0,0,0-34.65-74.37c-9.38-16.79-20.07-33.75-34.56-46.6-16.71-14.84-38.19-21.64-60-16.22A519.4,519.4,0,0,0,434.56,157c-26.86-20.11-57.44-39.8-90-49.52q2.29-2.73,4.65-5.37c15.91-17.79,34.69-35,56.2-46.31,3.12.41,6.23.9,9.33,1.43,49.07,33.36,90.7,77.82,128.47,123,54.19,64.82,100.33,135.87,140.17,210.28C705.58,432,725.86,474.47,744.64,517.6ZM726.42,413.91c3.87,9,9.37,18.32,11,27.94q2.22,13,3.76,26.18,2.8,23.69,3.4,47.57-17.13-39-36-77.2c-33.76-68-72.21-133.81-116.4-195.58a1098.49,1098.49,0,0,0-74.89-93.68c-25.24-28.19-52-55.22-81.7-78.72Q427.44,64,419,58a269.77,269.77,0,0,1,42.86,11.62,252.6,252.6,0,0,1,70,38.62c29.26,23,53.34,52.51,72.55,84.26,18.4,30.4,33.41,62.7,47.81,95.14,7,15.79,13.86,31.64,20.9,47.41,5,11.24,9.48,23,16.3,33.33,2.53,3.82,6.17,8,11.17,7.81a9.38,9.38,0,0,0,7.67-4.34Zm-72.76-168Q678,302.07,702.3,358.22q1.82,4.2,3.64,8.4c-1.13,3.08-4.68,5.19-8.12,5.3-8.37.28-11.59-9.52-14.39-15.64-7.31-15.94-14.32-32-21.37-48.07-14.11-32.12-28.37-64.27-45.42-95C587.5,160.81,549.83,112,496.59,82.4A265.18,265.18,0,0,0,411.7,52.92l-.21-.14a113,113,0,0,1,24.61-8.21c29.21-6,59.61.65,85.82,14.12C593.81,95.66,623.4,176,653.66,245.91Z"/></svg>