<svg className='splat'  xmlns="http://www.w3.org/2000/svg" viewBox="0 0 959 1079" width="100" height="100" preserveAspectRatio="xMidYMin slice">
  <defs><style>.a{fill:#fff;}</style></defs>
  <path class="a" d="M966,1009.8V986.27c-.43,1.61-.88,3.22-1.33,4.82H952a274.42,274.42,0,0,0,14-34.92V929.62a266.67,266.67,0,0,1-21.72,61.47H579.91V875.23l4.64-3.28H966V865H594.39L866.82,672.86c7,5.87,13.82,12.06,20.36,18.61a302.82,302.82,0,0,1,78.82,136V791.29c-15.39-47.63-44.15-91.59-84.7-128.64L939,621.92H1972V615H948.88l213-153-4-5.67L936.84,615H815.53q-3.56-2-7.15-4c24.81-25.3,42.86-58.24,51.79-95.21,13.41-55.46,3.69-110.27-22.33-150.87l56.76-62.5H1466V295.5H900.91L1164.25,4.67,1159.11,0,891.53,295.5H840.14l112.78-77h-12.3l-112.79,77H579.91v-77H573v77h-26.7a323.6,323.6,0,0,0-64.35-72.57c-1.8-1.5-3.61-3-5.43-4.46H465.28q6.2,4.75,12.17,9.77A317.91,317.91,0,0,1,538,295.5h-1.23a315.42,315.42,0,0,0-79-77H445.09a306.87,306.87,0,0,1,53.47,42.74,310,310,0,0,1,29.62,34.29H361.56V218.57h-6.94V295.5H38.1a309.75,309.75,0,0,1,83.08-77H108.53a315.7,315.7,0,0,0-79,77H0v6.94H24.69A308.81,308.81,0,0,0,0,346.2v17.57a301.71,301.71,0,0,1,33.11-61.33H354.62V615H11.56Q5.18,602.48,0,589.44v17.63q1.85,4,3.79,7.91H0v6.94H7.34a315.07,315.07,0,0,0,97.59,110.39A385.77,385.77,0,0,1,0,685.21v8.22a397.05,397.05,0,0,0,123.08,50.68c.8.48,1.61.94,2.41,1.41a158.71,158.71,0,0,0-50.29-6.84A188.52,188.52,0,0,0,0,756.48v7.69a188.7,188.7,0,0,1,40.83-14.32A152.11,152.11,0,0,0,0,768.64V777a146.91,146.91,0,0,1,143.19-13.9L0,860.91v14.5l192.35,83.14a196.86,196.86,0,0,1-11.11,18.29,429.8,429.8,0,0,0-84,14.25H0V998H74.63a395.33,395.33,0,0,0-52.92,22.23H4.4q-2.22-1.44-4.4-3v9.91H2.4c1,.63,2,1.25,3.05,1.85-1.84,1-3.64,2.15-5.45,3.23v8.08c4.13-2.52,8.3-5,12.53-7.35a154.06,154.06,0,0,0,71.52,17.57q3.47,0,6.91-.16a180.16,180.16,0,0,1-65.36,14.06c-1.16,0-2.31,0-3.47,0A157.39,157.39,0,0,1,0,1063v7a165.59,165.59,0,0,0,22.13,1.49c1.2,0,2.4,0,3.61,0,29.66-.62,59.28-8.76,86.48-23.45a153.35,153.35,0,0,0,22.59-6A314.72,314.72,0,0,0,0,1173.33v15.33A306.25,306.25,0,0,1,191.94,1027.2h35L3,1273.74l2.57,2.34,2,2.83,307.34-216.76a340.55,340.55,0,0,0,33.3,32.1q3.18,2.67,6.43,5.28v179.32h6.94V1105c41,31.28,89,54,140.83,67.17a212.25,212.25,0,0,0-53.11,34.25A206.28,206.28,0,0,0,393.67,1284h7.47a200.21,200.21,0,0,1,52.72-72.4,203.84,203.84,0,0,1,59.19-36.44c.78.47,1.57.92,2.35,1.37A153.37,153.37,0,0,0,433.52,1284h7a146.55,146.55,0,0,1,82.29-103.29A307.16,307.16,0,0,0,552.55,1195,301.15,301.15,0,0,1,573,1257.54V1284h11.31q-1.34-11.49-3.49-22.78c-.26-2.62-.55-5.22-.88-7.82v-48.62a312.82,312.82,0,0,0,91.85,13.7c6.4,0,12.76-.22,19.09-.6,13.46,19.54,20.82,42.28,22.41,66.12h6.91a142.85,142.85,0,0,0-10.08-44.92A144.8,144.8,0,0,1,727.55,1284h7A152.57,152.57,0,0,0,703,1216.93a309.84,309.84,0,0,0,59.62-11.85L945.22,1284h9.85l1.2-2.78-183.63-79.38A313.33,313.33,0,0,0,959.36,1027.2H1694v-6.94H962.16C963.51,1016.8,964.78,1013.31,966,1009.8ZM940.06,748.22a313.65,313.65,0,0,0-48-61.66q-9.37-9.37-19.41-17.83l2.8-2C902.43,691.15,924.11,718.63,940.06,748.22ZM927,621.92l-51,36c-1.8-1.58-3.62-3.16-5.46-4.71a366,366,0,0,0-43.31-31.27Zm-113.33,0a360.32,360.32,0,0,1,52.4,36.58c1.38,1.16,2.73,2.34,4.08,3.52l-3,2.12a309.85,309.85,0,0,0-68.94-42.22Zm-209.25,0h1.94a139.15,139.15,0,0,0,21.72,17.29,144.91,144.91,0,0,1-25.85-14.88Zm-.21-12.21,2.39-.51-1.43,1.57Zm12.37,12.21H777a146.74,146.74,0,0,1-88.88,30.14q-3.42,0-6.87-.17c-3.8-.56-7.59-1.28-11.37-2.19A125.93,125.93,0,0,1,616.58,621.92ZM610.72,615l7.3-8a308.56,308.56,0,0,1,141.4,8Zm61-19.68a316.37,316.37,0,0,0-46.23,3.38L650.64,571c49.85,4.71,97.42,17.94,140.3,38.84-1.79,1.76-3.63,3.45-5.5,5.11h-4.27A311.66,311.66,0,0,0,671.76,595.3Zm-77-118.67c0-4.45-.11-8.89-.3-13.31l141.25-96.47a145.09,145.09,0,0,1,57.77,36.64L647.83,563.8q-19-1.65-38.47-1.67-13.43,0-26.7.8A312.86,312.86,0,0,0,594.73,476.63Zm-5.62-59.28q-.87-8.94-2.34-17.78a147.64,147.64,0,0,1,25-19.16,145.56,145.56,0,0,1,76.12-21.54,147.23,147.23,0,0,1,34.7,4.16c1.56.37,3.1.78,4.64,1.21L594,455.22A311.38,311.38,0,0,0,589.11,417.35ZM742.76,362l50-34.15a139.38,139.38,0,0,1,36.33,36.39l-31,34.09A152,152,0,0,0,742.76,362Zm-86.3,202.62,141.71-156a148.25,148.25,0,0,1,15,20.48A146.47,146.47,0,0,1,796,604.64C753.34,583.52,706.05,569.91,656.46,564.63Zm197-50.45c-8.08,33.42-23.84,63.4-45.42,87.12a153.34,153.34,0,0,0,11.12-175.82,155.72,155.72,0,0,0-16.27-22L833,370.24C857.3,409.13,866.2,461.33,853.43,514.18ZM830,302.44h55.25L833.85,359a146.68,146.68,0,0,0-35-35.33Zm-12.31,0-25,17.08a131.08,131.08,0,0,0-39-16.46c-.91-.22-1.81-.42-2.72-.62ZM752,309.8a124.3,124.3,0,0,1,34.35,14L734.6,359.18q-5.13-1.62-10.41-2.9a153.3,153.3,0,0,0-129.87,27.8c30.33-47.81,78.63-77.75,128.57-77.75A124.12,124.12,0,0,1,752,309.8Zm-172.13-7.36H694.59c-44,9.44-84.43,40.33-110.2,84.65q-1.93-9-4.48-17.83Zm0,108.85c.19-.45.39-.9.59-1.36.62,2.8,1.2,5.6,1.74,8.42.8,8.31,1.23,16.68,1.23,25.11,0,6.52-.27,13-.75,19.46l-2.81,1.92Zm0,61.95,2-1.36q-.79,7.26-2,14.44Zm0,44.43a268.05,268.05,0,0,0,7.82-36.47,306.5,306.5,0,0,1-7.82,64.7Zm0,54.36.63-2q14.31-.94,28.82-1c10.95,0,21.81.43,32.58,1.23l-27.48,30.24q-7.69,1.43-15.27,3.23a156.77,156.77,0,0,1-19.28-31Zm19.74,43h-9c-.53-.47-1.05-1-1.57-1.43q3.78-1.06,7.59-2C597.62,612.69,598.63,613.85,599.65,615Zm-19.74-27.33a161.3,161.3,0,0,0,11.94,18q-4.29,1.13-8.54,2.37c-1.16-1.18-2.29-2.39-3.4-3.61Zm0,34.27H588c1.32,1.14,2.65,2.25,4,3.34l-12.1,13.33Zm0,27,17.62-19.41a154.39,154.39,0,0,0,83.09,29.31,133,133,0,0,0,18.68,1.33c30.11,0,60.24-10.27,87.22-30.12,1.58-1.16,3.12-2.35,4.66-3.56a302.66,302.66,0,0,1,70.06,41.85L582.35,865h-2.44ZM125.74,737.59A308,308,0,0,1,15.22,621.92H349.91L169.56,745.1A421.39,421.39,0,0,1,125.74,737.59Zm158.48,271.46q-3.23-5.46-6.2-11h5.65l31,13.39Q299.6,1009.52,284.22,1009.05Zm42.71,11.21H291.21c-.89-1.37-1.79-2.73-2.65-4.1A307,307,0,0,1,326.93,1020.26Zm-41.82-29.17-8.51-3.68q10.57,1.58,21,3.68Zm-4.87,24.82c.88,1.45,1.77,2.91,2.68,4.35H242.6l2.74-3q14.6-1.39,29.47-1.41C276.62,1015.84,278.43,1015.87,280.24,1015.91Zm-5.43-7q-11.38,0-22.63.81L262.79,998h7.4q2.83,5.49,5.92,10.89Zm-15.09-17.81H205.41q3.18-4.11,6.08-8.41h.93c13.46,0,26.8.64,40,1.84l9.54,4.13ZM220.36,872h8a147.8,147.8,0,0,1,1.82,34.74,146.49,146.49,0,0,1-14.33,54.47l-14-6C215,928.14,221.28,899.46,220.36,872ZM220,865A142.53,142.53,0,0,0,210,822.37,144.44,144.44,0,0,1,227,865Zm-.89,105.1,14.16,6.12q-8.66-.39-17.37-.46Q217.55,973,219.09,970.11Zm35.06,7.6-31.89-13.79a153.17,153.17,0,0,0,14.87-56.78,154.47,154.47,0,0,0-1.7-35.19h4.3c0,.59,0,1.18,0,1.77A268.2,268.2,0,0,0,261,978.4Q257.57,978,254.15,977.71Zm-20-112.7a152.69,152.69,0,0,0-34.78-69.1,154.47,154.47,0,0,0-21-19.84,131.88,131.88,0,0,0-13.2-10.9,309.67,309.67,0,0,0,89.07,21.71A267.81,267.81,0,0,0,239.85,865Zm-70-107.79,7.22-4.93a443.85,443.85,0,0,0,97.3.17,277.37,277.37,0,0,0-12,27.66A302.16,302.16,0,0,1,164.12,757.22ZM160.93,751l-4.29,2.93c-3.71-1.7-7.39-3.45-11-5.3Q153.22,750,160.93,751Zm-10.47,15.55a145.53,145.53,0,0,1,23.35,14.81q4.22,4,8.08,8.37C200.54,811,210.75,837.2,213,865H6.3ZM9.5,872h204c.93,26.56-5.19,54.3-17.94,80.41Zm189.23,89.36,14,6q-2.34,4.29-5,8.43-8.94.09-17.8.54Q194.68,968.94,198.73,961.31ZM185,983.52Q194,983,203,982.78q-3.08,4.26-6.47,8.31H179.41Q182.32,987.36,185,983.52Zm-9.08.67c-1.75,2.32-3.57,4.63-5.44,6.9H127.27A424.22,424.22,0,0,1,176,984.19ZM98.14,998h66.4a207.75,207.75,0,0,1-17.4,17.18c-2,1.73-4,3.41-6,5H37.61A395.31,395.31,0,0,1,98.14,998Zm11.67,43.35A147.52,147.52,0,0,1,20,1029c1.15-.6,2.3-1.2,3.46-1.79H132.15A206.19,206.19,0,0,1,109.81,1041.38Zm22.79-6q5.6-3.9,11-8.2h8A147,147,0,0,1,132.6,1035.4ZM173.77,998h16.51q-4.59,4.83-9.66,9.28a145.85,145.85,0,0,1-17.13,13H151.9A216,216,0,0,0,173.77,998Zm-15,33.12c2.25-1.26,4.47-2.57,6.67-4h3.68C165.66,1028.45,162.22,1029.78,158.79,1031.15ZM191,1020.26H175.6c3.27-2.44,6.48-5,9.6-7.73A156,156,0,0,0,199.68,998h53.74L242,1010.61A311.49,311.49,0,0,0,191,1020.26Zm31.74,0c4-.7,8.11-1.29,12.19-1.83l-1.65,1.83ZM29.33,1255.06l207-227.86h51.15a309.23,309.23,0,0,0,22.81,29.72ZM295.9,1027.2h55.25l.77.33-36,25.37A303.83,303.83,0,0,1,295.9,1027.2Zm58.72,63.35-2-1.61a334,334,0,0,1-32.06-30.82l34-24Zm0-71.37c-3.49-.92-7-1.79-10.51-2.58L301.16,998H326.7q14.18,3.94,27.92,8.88Zm0-19.65-4.41-1.5h4.41Zm0-8.44h-27a425,425,0,0,0-49.06-10.4l76.08-83.75Zm0-104.47-84.39,92.9-1.26-.17a261.58,261.58,0,0,1-22.33-105.63c0-.59,0-1.18,0-1.77h108Zm0-21.61H246.8a260.58,260.58,0,0,1,14.54-77.55c7.22.49,14.49.76,21.8.76A314,314,0,0,0,354.62,780Zm0-92.14a306.76,306.76,0,0,1-71.48,8.41c-6.47,0-12.91-.22-19.32-.62a273.1,273.1,0,0,1,13.11-29.17,422.92,422.92,0,0,0,77.69-17.41Zm0-46.11A413.91,413.91,0,0,1,281,743.93c17.58-31.32,41.66-60.19,71.65-85.43l2-1.61Zm0-78.84q-3.25,2.6-6.43,5.27c-32.07,27-57.52,58.07-75.7,91.85a436.2,436.2,0,0,1-51.75,3.07q-20.46,0-40.52-1.89l174.4-119.11ZM542.43,302.44q4.77,7.65,9,15.51-4.68-7.89-9.84-15.51ZM361.56,622.37l.66-.45H391.5q-15.51,9.57-29.94,20.56ZM555.8,489.71a198.91,198.91,0,0,0,6.82,56C560,552,557,558.2,553.88,564.32a144.91,144.91,0,0,1-12.22-65Zm-13.48.8a148.43,148.43,0,0,1,3.35-19.45,146.63,146.63,0,0,1,23.23-50.93,217.44,217.44,0,0,0-7.14,23.56,214.6,214.6,0,0,0-5.62,37.38ZM523.89,621.92h21.43a309,309,0,0,0-42.78,23.23Q513.91,633.9,523.89,621.92Zm-3.3-6.94H417.68A402.37,402.37,0,0,1,549.1,573.25,293.51,293.51,0,0,1,520.59,615Zm26.68,13.69A307.4,307.4,0,0,1,407.63,754.85,307.4,307.4,0,0,1,547.27,628.67ZM529.5,615a301.35,301.35,0,0,0,24.09-35.61q1.7,3.09,3.54,6.12c2.1,3.44,4.33,6.78,6.66,10q-4.18,9.88-9.08,19.47Zm33.55-33.11q-2.91-4.77-5.44-9.71v0q6.86-.81,13.78-1.42c.31.72.63,1.43,1,2.14q-2.52,7.57-5.44,15Q564.92,584.93,563.05,581.87Zm-1.58-17.15c1.47-2.92,2.89-5.84,4.25-8.8q1.37,4.1,2.91,8.09C566.24,564.23,563.86,564.46,561.47,564.72Zm-14.21,1.78C495.52,573.83,446.6,590.31,403.2,615H372.38L534.59,504.19A151.76,151.76,0,0,0,547.26,566.5Zm-185.7,84.79a361.41,361.41,0,0,1,43.5-29.37H514.77a330.34,330.34,0,0,1-37.32,36.76c-33.8,28.44-73.11,50.56-115.89,65.7Zm0,80.45a387.43,387.43,0,0,0,88.7-44,312.54,312.54,0,0,0-53.07,71.52,301.1,301.1,0,0,1-35.63,11.84Zm0,46.56a307.75,307.75,0,0,0,30.82-9.71A308.66,308.66,0,0,0,363,865h-1.4Zm22.6,248.9.7,1.62c-1.46-.55-2.91-1.1-4.38-1.62Zm-9.88-6.94,5-3.56.82.36c.4,1.07.8,2.14,1.22,3.2Zm9.05-14.88c-.83-2.44-1.64-4.89-2.4-7.35h12.82Zm-4.48-14.29a306,306,0,0,1-11.74-84.2q0-12.5,1-24.81L377.31,872h195.2L403.59,991.09ZM361.56,872h.56c-.2,1.79-.4,3.59-.56,5.39Zm0,64.49a311.33,311.33,0,0,0,10.06,54.65H361.56Zm0,61.59h12.08c1,3.38,2.14,6.74,3.29,10.09q-7.6-3.2-15.37-6.08Zm0,11.43c3.44,1.3,6.85,2.66,10.24,4l-9.56,6.75h-.68Zm0,86.69V1031.7L392.28,1045a315.05,315.05,0,0,0,101.27,117.59C444.85,1148.84,400,1126.38,361.56,1096.15Zm30.16-69h9.71a364.33,364.33,0,0,1,63.91,41.8l-16.77-7.25A308.75,308.75,0,0,0,394,1032.42C393.23,1030.69,392.47,1029,391.72,1027.2Zm122,140.26a308,308,0,0,1-111.43-118.15l42.91,18.54A308.49,308.49,0,0,1,534.46,1161,192,192,0,0,0,513.72,1167.46Zm-41.1-87.75,9.87,4.26a305.63,305.63,0,0,1,59.23,75.3l-.13,0a313.67,313.67,0,0,0-46.45-59.14Q484.31,1089.33,472.62,1079.71Zm53.87,90.7q5.82-1.82,11.71-3.23l.09.16q-5,1.54-9.9,3.45Zm7.74,8.48q5.68,1,11.43,1.84c.81,1.57,1.62,3.15,2.4,4.74Q541.07,1182.37,534.23,1178.89ZM573,1218.05c-1.56-5.82-3.34-11.59-5.29-17.31q2.64.93,5.29,1.82Zm0-22.83c-2.8-1-5.59-2-8.35-3-1.22-3.21-2.48-6.41-3.82-9.59q6.06.67,12.17,1.19Zm0-18.36q-7.74-.64-15.39-1.57c-.77-1.69-1.58-3.38-2.39-5.06A146.36,146.36,0,0,1,573,1167.8Zm0-21.39a179.28,179.28,0,0,0-24.08,2.45,306.71,306.71,0,0,0-48.82-66.35l72.9,31.52Zm0-40-86.59-37.43q-6.21-5.76-12.79-11.3a367.92,367.92,0,0,0-57.47-39.59H573Zm0-95.26H403.12q-8.47-4.32-17.17-8.23l19.84-14H573Zm0-29.17H415.63L573,880.12ZM573,865H383.62L573,656.55Zm0-218.78L374.24,865H370a301.42,301.42,0,0,1,32.16-100.23A314.11,314.11,0,0,0,557.7,624.24c2-.79,3.93-1.57,5.9-2.32H573Zm0-35c-3.51,1.16-7,2.41-10.45,3.7q3.21-6.46,6.11-13.07c1.41,1.76,2.85,3.49,4.34,5.18Zm0-15.06c-.42-.54-.84-1.07-1.25-1.61l1.25-3.12Zm0-40.42q-1.65-4.71-3-9.55,1.58-3.83,3-7.69Zm0-39.06q-2.65,9-6,17.9a194.4,194.4,0,0,1-4.14-49.71L573,478Zm0-47.1-9.51,6.49a208.28,208.28,0,0,1,5-30.75q1.93-8,4.46-15.73Zm0-65.53a152.42,152.42,0,0,0-34,65.38,155.55,155.55,0,0,0-4,26.14L361.56,614V302.44H533.17A301.42,301.42,0,0,1,573,382.31Zm0-55.63a283.08,283.08,0,0,0-22.38-46H573ZM579.91,998h360.8q-6,11.33-13.19,22.23H579.91Zm0,29.17H922.83a319.9,319.9,0,0,1-56.76,61.74c-47.26,39.77-105.29,67.21-168.57,80.42l-117.59-50.84Zm0,98.88,105.48,45.6q-14.5,2.6-29.32,4.19c-21.94-13.23-47.94-20.32-76.16-20.51Zm0,41.37c1.34,0,2.67-.08,4-.08a147.47,147.47,0,0,1,53.63,10.09q-14,.9-28.19.91-14.82,0-29.45-1Zm91.85,44.09a305.29,305.29,0,0,1-91.85-14v-13.16q14.63,1,29.45,1,20.89,0,41.38-1.94A145.23,145.23,0,0,1,673.82,1198c2.82,2.67,5.54,5.47,8.12,8.42,1.37,1.56,2.68,3.15,4,4.77C681.21,1211.42,676.49,1211.54,671.76,1211.54Zm25.69-1.08a153.85,153.85,0,0,0-19.08-17.68,131,131,0,0,0-13.3-11q16-2,31.66-5.22l55.88,24.15A304.29,304.29,0,0,1,697.45,1210.46Zm189.73-88.15A303.19,303.19,0,0,1,763,1197.68l-54.63-23.61c60.72-14.14,116.37-41.3,162.15-79.82a325.75,325.75,0,0,0,60.74-67H951.8A304.39,304.39,0,0,1,887.18,1122.31Zm67.5-102H935.81q6.9-10.9,12.73-22.23h14.05Q959.08,1009.31,954.68,1020.26Z"/>
</svg>